<?xml version="1.0" encoding="UTF-8" standalone="no"?>
<svg width="551px" height="551px" viewBox="0 0 551 551" version="1.1" xmlns="http://www.w3.org/2000/svg" xmlns:xlink="http://www.w3.org/1999/xlink" xmlns:sketch="http://www.bohemiancoding.com/sketch/ns">
    <!-- Generator: Sketch 3.3.3 (12081) - http://www.bohemiancoding.com/sketch -->
    <title>github--black</title>
    <desc>Created with Sketch.</desc>
    <defs></defs>
    <g id="Page-1" stroke="none" stroke-width="1" fill="none" fill-rule="evenodd" sketch:type="MSPage">
        <g id="github--black" sketch:type="MSLayerGroup" fill="#222222">
            <path d="M318.690006,381.152098 C372.37484,374.812369 429.473291,355.292764 429.473291,262.566566 C429.473291,236.211117 420.192385,214.732879 405.076475,198.137232 C407.51508,191.79858 415.31625,167.881736 402.134221,134.700129 C402.134221,134.700129 382.613539,128.352867 336.747094,159.095869 C317.226412,153.733305 295.755707,150.311078 275.74752,150.311078 C255.243217,150.311078 233.764979,153.733305 214.731803,159.095869 C168.368166,128.352867 148.848561,134.700129 148.848561,134.700129 C135.675141,167.881736 143.485996,191.79858 145.923525,198.137232 C130.791473,214.731803 121.519176,236.211117 121.519176,262.566566 C121.519176,355.292764 178.617627,374.812369 232.302461,381.152098 C225.475227,387.019387 219.129041,398.234174 216.690436,413.853732 C203.0209,419.705955 167.393154,430.935809 145.923525,393.845545 C145.923525,393.845545 133.230078,370.912322 109.320768,369.449805 C109.320768,369.449805 85.4039238,368.962299 107.369668,384.077133 C107.369668,384.077133 123.469199,391.408016 134.212623,419.217373 C134.212623,419.217373 148.848561,465.588543 216.19432,450.94292 L216.19432,492.421813 C216.19432,498.777684 211.319262,506.091348 199.120854,504.141324 C103.462088,472.414701 34.6527344,381.638527 34.6527344,275.25248 C34.6527344,142.014869 142.502375,34.1663047 275.74752,34.1663047 C408.490092,34.1663047 516.834771,142.015945 516.347266,275.25248 C516.347266,381.638527 447.530379,471.927195 351.87807,504.141324 C339.672129,506.57993 334.795994,499.266266 334.795994,492.421813 L334.795994,425.572168 C334.79707,403.109232 327.466188,388.481904 318.690006,381.152098 L318.690006,381.152098 L318.690006,381.152098 Z M551,275.74752 C551,123.469199 427.523268,0 275.74752,0 C123.469199,0 0,123.469199 0,275.74752 C0,427.523268 123.469199,551 275.74752,551 C427.523268,551 551,427.523268 551,275.74752 L551,275.74752 L551,275.74752 Z" id="Shape" sketch:type="MSShapeGroup"></path>
        </g>
    </g>
</svg>