<?xml version="1.0" encoding="UTF-8" standalone="no"?>
<svg width="315px" height="45px" viewBox="0 0 315 45" version="1.1" xmlns="http://www.w3.org/2000/svg" xmlns:xlink="http://www.w3.org/1999/xlink" xmlns:sketch="http://www.bohemiancoding.com/sketch/ns">
    <!-- Generator: Sketch 3.3.3 (12081) - http://www.bohemiancoding.com/sketch -->
    <title>Slice 1</title>
    <desc>Created with Sketch.</desc>
    <defs></defs>
    <g id="Page-1" stroke="none" stroke-width="1" fill="none" fill-rule="evenodd" sketch:type="MSPage">
        <g id="J1X-Blog-White" sketch:type="MSLayerGroup" transform="translate(-1.000000, 0.000000)" fill="#FFFFFF">
            <path d="M30.9580616,0.49305368 L19.2366155,0.49305368 L19.2366155,28.1604264 C19.2366155,31.4329114 16.9756259,33.3369026 13.9411398,33.3369026 C11.6206505,33.3369026 10.2521568,32.7419054 9.35966088,31.8494095 C5.13518031,36.1928895 2.27919345,39.0488764 0.851200013,40.4768698 C4.95668113,44.4038517 12.0371486,45.1178485 13.5246417,45.1178485 C22.2116018,45.1178485 30.7795624,40.1793712 30.9580616,29.8859185 L30.9580616,0.49305368 Z M42.4622272,17.6581943 L36.3900678,10.5740084 L46.2404597,0.116400509 L57.0354098,0.116400509 L57.0354098,45.1178485 L42.4622272,45.1178485 L42.4622272,17.6581943 Z M93.8853964,0.49305368 L86.150432,11.6195025 L78.3559679,0.49305368 L64.0760335,0.49305368 L78.9509651,21.8534554 L62.5885404,45.1178485 L76.8684747,45.1178485 L86.150432,32.0279087 L95.3728896,45.1178485 L109.652824,45.1178485 L93.2903992,21.8534554 L108.165331,0.49305368 L93.8853964,0.49305368 Z M165.106569,0.49305368 L143.09167,0.49305368 L143.09167,45.1178485 L166.237064,45.1178485 C172.901033,45.1178485 178.315508,39.7033734 178.315508,33.039404 C178.315508,27.4464297 174.448026,22.6864516 169.21205,21.3774576 C173.139032,19.7114653 175.935519,15.8439831 175.935519,11.3220039 C175.935519,5.37203124 171.056542,0.49305368 165.106569,0.49305368 L165.106569,0.49305368 Z M166.237064,22.1509541 C172.246536,22.1509541 177.125514,27.0299316 177.125514,33.039404 C177.125514,39.0488764 172.246536,43.9278539 166.237064,43.9278539 L144.281665,43.9278539 L144.281665,22.1509541 L166.237064,22.1509541 Z M144.281665,20.9609595 L144.281665,1.68304821 L165.106569,1.68304821 C170.402045,1.68304821 174.745525,6.02652823 174.745525,11.3220039 C174.745525,16.6174795 170.402045,20.9609595 165.106569,20.9609595 L144.281665,20.9609595 Z M186.685845,0.49305368 L185.55535,0.49305368 L185.55535,45.1178485 L213.401222,45.1178485 L213.401222,43.9873537 L186.685845,43.9873537 L186.685845,0.49305368 Z M216.773581,22.8054511 C216.773581,35.1813942 226.710036,45.1178485 239.085979,45.1178485 C251.461922,45.1178485 261.457876,35.1813942 261.457876,22.8054511 C261.457876,10.429508 251.461922,0.49305368 239.085979,0.49305368 C226.710036,0.49305368 216.773581,10.429508 216.773581,22.8054511 L216.773581,22.8054511 Z M217.904076,22.8054511 C217.904076,11.0245052 227.305033,1.62354848 239.085979,1.62354848 C250.866925,1.62354848 260.327381,11.0245052 260.327381,22.8054511 C260.327381,34.5863969 250.866925,43.9873537 239.085979,43.9873537 C227.305033,43.9873537 217.904076,34.5863969 217.904076,22.8054511 L217.904076,22.8054511 Z M290.474617,22.388953 L311.65652,22.388953 L311.65652,22.8054511 C311.65652,34.2293985 302.196063,43.9873537 290.474617,43.9873537 C278.753171,43.9873537 269.292715,34.5268972 269.292715,22.8054511 C269.292715,11.084005 278.753171,1.62354848 290.474617,1.62354848 C296.305591,1.62354848 301.541566,3.94403781 305.349549,7.69252057 L306.182545,6.91902413 C302.136564,2.93254246 296.603089,0.49305368 290.474617,0.49305368 C278.158174,0.49305368 268.16222,10.4890077 268.16222,22.8054511 C268.16222,35.1218944 278.158174,45.1178485 290.474617,45.1178485 C302.791061,45.1178485 312.906014,35.1218944 312.906014,22.8054511 L312.906014,21.1394587 L290.474617,21.1394587 L290.474617,22.388953 Z" id="J1X-BLOG" sketch:type="MSShapeGroup"></path>
        </g>
    </g>
</svg>