<?xml version="1.0" encoding="UTF-8" standalone="no"?>
<svg width="315px" height="45px" viewBox="0 0 315 45" version="1.1" xmlns="http://www.w3.org/2000/svg" xmlns:xlink="http://www.w3.org/1999/xlink" xmlns:sketch="http://www.bohemiancoding.com/sketch/ns">
    <!-- Generator: Sketch 3.3.3 (12081) - http://www.bohemiancoding.com/sketch -->
    <title>Slice 1</title>
    <desc>Created with Sketch.</desc>
    <defs></defs>
    <g id="Page-1" stroke="none" stroke-width="1" fill="none" fill-rule="evenodd" sketch:type="MSPage">
        <path d="M29.9580616,0.49305368 L18.2366155,0.49305368 L18.2366155,28.1604264 C18.2366155,31.4329114 15.9756259,33.3369026 12.9411398,33.3369026 C10.6206505,33.3369026 9.25215678,32.7419054 8.35966088,31.8494095 C4.13518031,36.1928895 1.27919345,39.0488764 -0.148799987,40.4768698 C3.95668113,44.4038517 11.0371486,45.1178485 12.5246417,45.1178485 C21.2116018,45.1178485 29.7795624,40.1793712 29.9580616,29.8859185 L29.9580616,0.49305368 Z M41.4622272,17.6581943 L35.3900678,10.5740084 L45.2404597,0.116400509 L56.0354098,0.116400509 L56.0354098,45.1178485 L41.4622272,45.1178485 L41.4622272,17.6581943 Z M92.8853964,0.49305368 L85.150432,11.6195025 L77.3559679,0.49305368 L63.0760335,0.49305368 L77.9509651,21.8534554 L61.5885404,45.1178485 L75.8684747,45.1178485 L85.150432,32.0279087 L94.3728896,45.1178485 L108.652824,45.1178485 L92.2903992,21.8534554 L107.165331,0.49305368 L92.8853964,0.49305368 Z M164.106569,0.49305368 L142.09167,0.49305368 L142.09167,45.1178485 L165.237064,45.1178485 C171.901033,45.1178485 177.315508,39.7033734 177.315508,33.039404 C177.315508,27.4464297 173.448026,22.6864516 168.21205,21.3774576 C172.139032,19.7114653 174.935519,15.8439831 174.935519,11.3220039 C174.935519,5.37203124 170.056542,0.49305368 164.106569,0.49305368 L164.106569,0.49305368 Z M165.237064,22.1509541 C171.246536,22.1509541 176.125514,27.0299316 176.125514,33.039404 C176.125514,39.0488764 171.246536,43.9278539 165.237064,43.9278539 L143.281665,43.9278539 L143.281665,22.1509541 L165.237064,22.1509541 Z M143.281665,20.9609595 L143.281665,1.68304821 L164.106569,1.68304821 C169.402045,1.68304821 173.745525,6.02652823 173.745525,11.3220039 C173.745525,16.6174795 169.402045,20.9609595 164.106569,20.9609595 L143.281665,20.9609595 Z M185.685845,0.49305368 L184.55535,0.49305368 L184.55535,45.1178485 L212.401222,45.1178485 L212.401222,43.9873537 L185.685845,43.9873537 L185.685845,0.49305368 Z M215.773581,22.8054511 C215.773581,35.1813942 225.710036,45.1178485 238.085979,45.1178485 C250.461922,45.1178485 260.457876,35.1813942 260.457876,22.8054511 C260.457876,10.429508 250.461922,0.49305368 238.085979,0.49305368 C225.710036,0.49305368 215.773581,10.429508 215.773581,22.8054511 L215.773581,22.8054511 Z M216.904076,22.8054511 C216.904076,11.0245052 226.305033,1.62354848 238.085979,1.62354848 C249.866925,1.62354848 259.327381,11.0245052 259.327381,22.8054511 C259.327381,34.5863969 249.866925,43.9873537 238.085979,43.9873537 C226.305033,43.9873537 216.904076,34.5863969 216.904076,22.8054511 L216.904076,22.8054511 Z M289.474617,22.388953 L310.65652,22.388953 L310.65652,22.8054511 C310.65652,34.2293985 301.196063,43.9873537 289.474617,43.9873537 C277.753171,43.9873537 268.292715,34.5268972 268.292715,22.8054511 C268.292715,11.084005 277.753171,1.62354848 289.474617,1.62354848 C295.305591,1.62354848 300.541566,3.94403781 304.349549,7.69252057 L305.182545,6.91902413 C301.136564,2.93254246 295.603089,0.49305368 289.474617,0.49305368 C277.158174,0.49305368 267.16222,10.4890077 267.16222,22.8054511 C267.16222,35.1218944 277.158174,45.1178485 289.474617,45.1178485 C301.791061,45.1178485 311.906014,35.1218944 311.906014,22.8054511 L311.906014,21.1394587 L289.474617,21.1394587 L289.474617,22.388953 Z" id="J1X-BLOG" fill="#000000" sketch:type="MSShapeGroup"></path>
    </g>
</svg>