<?xml version="1.0" encoding="UTF-8" standalone="no"?>
<svg width="46px" height="47px" viewBox="0 0 46 47" version="1.1" xmlns="http://www.w3.org/2000/svg" xmlns:xlink="http://www.w3.org/1999/xlink" xmlns:sketch="http://www.bohemiancoding.com/sketch/ns">
    <!-- Generator: Sketch 3.3.3 (12081) - http://www.bohemiancoding.com/sketch -->
    <title>Slice 2</title>
    <desc>Created with Sketch.</desc>
    <defs></defs>
    <g id="Page-1" stroke="none" stroke-width="1" fill="none" fill-rule="evenodd" sketch:type="MSPage">
        <g id="J-White" sketch:type="MSLayerGroup">
            <path d="M31.1984561,9.546875 L23.5823845,9.546875 L23.5823845,27.6994536 C23.5823845,29.8465327 22.1132946,31.0957425 20.1416212,31.0957425 C18.633871,31.0957425 17.744685,30.7053644 17.1647811,30.1197974 C14.4199025,32.969557 12.5642099,34.8433716 11.6363636,35.7802789 C14.3039217,38.3567739 18.9044928,38.8252275 19.8709994,38.8252275 C25.5153976,38.8252275 31.0824753,35.5850898 31.1984561,28.8315499 L31.1984561,9.546875 Z" id="J1X-BLOG-Copy" fill="#FFFFFF" sketch:type="MSShapeGroup"></path>
            <g id="logo-black" transform="translate(0.545455, 1.468750)" stroke-width="3" stroke="#FFFFFF" sketch:type="MSShapeGroup">
                <g id="Layer_3" transform="translate(1.272727, 1.285156)">
                    <g id="Group">
                        <path d="M20.7994545,0.143386719 C32.2143636,0.143386719 41.4632727,9.48463672 41.4632727,21.0091836 C41.4632727,32.5335469 32.2143636,41.8747969 20.7994545,41.8747969 C9.38672727,41.8747969 0.135454545,32.5335469 0.135454545,21.0091836 C0.135454545,9.48463672 9.38672727,0.143386719 20.7994545,0.143386719 Z" id="Shape"></path>
                    </g>
                </g>
            </g>
        </g>
    </g>
</svg>