<?xml version="1.0" encoding="UTF-8" standalone="no"?>
<svg width="552px" height="552px" viewBox="0 0 552 552" version="1.1" xmlns="http://www.w3.org/2000/svg" xmlns:xlink="http://www.w3.org/1999/xlink" xmlns:sketch="http://www.bohemiancoding.com/sketch/ns">
    <!-- Generator: Sketch 3.3.3 (12081) - http://www.bohemiancoding.com/sketch -->
    <title>facebook--black</title>
    <desc>Created with Sketch.</desc>
    <defs></defs>
    <g id="Page-1" stroke="none" stroke-width="1" fill="none" fill-rule="evenodd" sketch:type="MSPage">
        <g id="vimeo" sketch:type="MSLayerGroup" transform="translate(2.000000, 56.000000)" fill="#222222">
            <path d="M35.6171218,152.154 C35.6171218,152.154 97.2737395,104.184044 111.329937,198.963234 L151.333193,348.696366 C151.333193,348.696366 193.395483,503.117473 288.145693,468.003322 C288.145693,468.003322 431.52584,390.271946 533.692962,166.182088 C533.692962,166.182088 593.33792,1.17806341 481.029307,1.17806341 C481.029307,1.17806341 361.255252,-10.7794537 330.160609,96.3826976 C330.160609,96.3826976 319.796113,129.814727 354.759244,127.577678 C354.759244,127.577678 414.404202,106.505488 375.879937,201.295083 C375.879937,201.295083 333.722899,299.542566 298.629202,299.542566 C298.629202,299.542566 256.591176,300.750688 246.083403,121.752102 C246.083403,121.752102 248.567647,5.34463902 157.355462,5.34463902 C157.355462,5.34463902 102.230672,22.2849366 0.487605042,131.057532 L35.6171218,152.154 L35.6171218,152.154 Z" id="Shape" sketch:type="MSShapeGroup"></path>
        </g>
    </g>
</svg>