<?xml version="1.0" encoding="UTF-8" standalone="no"?>
<svg width="551px" height="394px" viewBox="0 0 551 394" version="1.1" xmlns="http://www.w3.org/2000/svg" xmlns:xlink="http://www.w3.org/1999/xlink" xmlns:sketch="http://www.bohemiancoding.com/sketch/ns">
    <!-- Generator: Sketch 3.3.3 (12081) - http://www.bohemiancoding.com/sketch -->
    <title>Shape</title>
    <desc>Created with Sketch.</desc>
    <defs></defs>
    <g id="Page-1" stroke="none" stroke-width="1" fill="none" fill-rule="evenodd" sketch:type="MSPage">
        <path d="M393.571429,196.785714 C393.571429,189.201265 390.496652,183.666667 384.347098,180.18192 L226.918527,81.7890625 C220.563988,77.6893601 213.901972,77.484375 206.932478,81.1741071 C200.167969,84.8638393 196.785714,90.6034226 196.785714,98.3928571 L196.785714,295.178571 C196.785714,302.968006 200.167969,308.707589 206.932478,312.397321 C210.21224,314.037202 213.389509,314.857143 216.464286,314.857143 C220.563988,314.857143 224.048735,313.832217 226.918527,311.782366 L384.347098,213.389509 C390.496652,209.904762 393.571429,204.370164 393.571429,196.785714 L393.571429,196.785714 Z M551,196.785714 C551,216.464286 550.897507,231.83817 550.692522,242.907366 C550.487537,253.976563 549.61635,267.966797 548.078962,284.878069 C546.541574,301.789342 544.235491,316.906994 541.160714,330.231027 C537.880952,345.19494 530.808966,357.801525 519.944754,368.050781 C509.080543,378.300037 496.371466,384.244606 481.817522,385.884487 C436.310826,391.009115 367.538318,393.571429 275.5,393.571429 C183.461682,393.571429 114.689174,391.009115 69.1824777,385.884487 C54.6285342,384.244606 41.8682106,378.300037 30.9015067,368.050781 C19.9348028,357.801525 12.8115699,345.19494 9.53180804,330.231027 C6.66201637,316.906994 4.45842634,301.789342 2.92103795,284.878069 C1.38364955,267.966797 0.512462798,253.976563 0.307477679,242.907366 C0.10249256,231.83817 -5.70987237e-16,216.464286 0,196.785714 C5.70987237e-16,177.107143 0.10249256,161.733259 0.307477679,150.664063 C0.512462798,139.594866 1.38364955,125.604632 2.92103795,108.693359 C4.45842634,91.7820871 6.76450893,76.6644345 9.83928571,63.3404018 C13.1190476,48.3764881 20.1910342,35.7699033 31.0552455,25.5206473 C41.9194568,15.2713914 54.6285342,9.32682292 69.1824777,7.68694196 C114.689174,2.56231399 183.461682,-2.84217094e-14 275.5,-2.84217094e-14 C367.538318,-2.84217094e-14 436.310826,2.56231399 481.817522,7.68694196 C496.371466,9.32682292 509.131789,15.2713914 520.098493,25.5206473 C531.065197,35.7699033 538.18843,48.3764881 541.468192,63.3404018 C544.337984,76.6644345 546.541574,91.7820871 548.078962,108.693359 C549.61635,125.604632 550.487537,139.594866 550.692522,150.664063 C550.897507,161.733259 551,177.107143 551,196.785714 L551,196.785714 Z" id="Shape" fill="#222222" sketch:type="MSShapeGroup"></path>
    </g>
</svg>